<svg width="20" height="13" viewBox="0 0 20 13" fill="none" xmlns="http://www.w3.org/2000/svg">
<path fill-rule="evenodd" clip-rule="evenodd" d="M19.4723 1.68205C19.4723 1.04901 18.9947 0.535828 18.4056 0.535828H17.3389C16.7498 0.535828 16.2723 1.04901 16.2723 1.68205V11.616C16.2723 12.2491 16.7498 12.7622 17.3389 12.7622H18.4056C18.9947 12.7622 19.4723 12.2491 19.4723 11.616V1.68205ZM12.0382 2.98111H13.1048C13.6939 2.98111 14.1715 3.50661 14.1715 4.15485V11.5885C14.1715 12.2367 13.6939 12.7622 13.1048 12.7622H12.0382C11.4491 12.7622 10.9715 12.2367 10.9715 11.5885V4.15485C10.9715 3.50661 11.4491 2.98111 12.0382 2.98111ZM7.70639 5.63016H6.63973C6.05062 5.63016 5.57306 6.16235 5.57306 6.81884V11.5736C5.57306 12.23 6.05062 12.7622 6.63973 12.7622H7.70639C8.2955 12.7622 8.77306 12.23 8.77306 11.5736V6.81884C8.77306 6.16235 8.2955 5.63016 7.70639 5.63016ZM2.40561 8.07545H1.33894C0.749841 8.07545 0.272278 8.60004 0.272278 9.24715V11.5905C0.272278 12.2377 0.749841 12.7622 1.33894 12.7622H2.40561C2.99471 12.7622 3.47228 12.2377 3.47228 11.5905V9.24715C3.47228 8.60004 2.99471 8.07545 2.40561 8.07545Z" fill="black"/>
</svg>
