<svg width="19" height="13" viewBox="0 0 19 13" fill="none" xmlns="http://www.w3.org/2000/svg">
<path fill-rule="evenodd" clip-rule="evenodd" d="M9.5428 3.10404C12.0299 3.10414 14.4219 4.02623 16.2244 5.67971C16.3602 5.80736 16.5771 5.80575 16.7108 5.6761L18.0083 4.41263C18.076 4.34687 18.1137 4.25779 18.1132 4.16511C18.1126 4.07243 18.0738 3.98379 18.0053 3.91879C13.2743 -0.455922 5.81056 -0.455922 1.07955 3.91879C1.01102 3.98374 0.972136 4.07235 0.971504 4.16504C0.970872 4.25772 1.00854 4.34682 1.07619 4.41263L2.37405 5.6761C2.50765 5.80595 2.72477 5.80756 2.86042 5.67971C4.66316 4.02612 7.05544 3.10403 9.5428 3.10404ZM9.53944 7.32431C10.8968 7.32423 12.2056 7.83597 13.2118 8.7601C13.3478 8.89125 13.5622 8.88841 13.6949 8.75369L14.9821 7.43438C15.0499 7.36518 15.0876 7.2713 15.0866 7.17375C15.0856 7.0762 15.0461 6.98312 14.9769 6.91533C11.9131 4.02448 7.16838 4.02448 4.10454 6.91533C4.03534 6.98312 3.99585 7.07625 3.99494 7.17383C3.99403 7.27141 4.03178 7.36528 4.09971 7.43438L5.38662 8.75369C5.51928 8.88841 5.73364 8.89125 5.86973 8.7601C6.87518 7.83658 8.18302 7.32488 9.53944 7.32431ZM12.0639 10.1179C12.0658 10.2232 12.0287 10.3248 11.9614 10.3986L9.78477 12.8533C9.72096 12.9255 9.63397 12.9661 9.5432 12.9661C9.45243 12.9661 9.36544 12.9255 9.30163 12.8533L7.1246 10.3986C7.05735 10.3247 7.02035 10.2231 7.02235 10.1178C7.02434 10.0124 7.06515 9.91267 7.13514 9.84205C8.52524 8.52816 10.5612 8.52816 11.9513 9.84205C12.0212 9.91272 12.0619 10.0125 12.0639 10.1179Z" fill="black"/>
</svg>
